<svg xmlns="http://www.w3.org/2000/svg" viewBox="0 0 1200 675" role="img" aria-labelledby="t d"><title id="t">Procvičte si poznávání</title><desc id="d">Ilustrace lupy nad listem bez textu.</desc><defs><linearGradient id="bg" x1="0" x2="1" y1="0" y2="1"><stop stop-color="#dce8d8"/><stop offset="1" stop-color="#8db196"/></linearGradient><filter id="s"><feDropShadow dx="0" dy="18" stdDeviation="18" flood-color="#173f25" flood-opacity=".2"/></filter></defs><rect width="1200" height="675" rx="42" fill="url(#bg)"/><circle cx="1030" cy="105" r="165" fill="#fff8df" opacity=".25"/><path d="M0 558C195 505 370 505 573 562c227 64 430 53 627-53v166H0Z" fill="#173f25" opacity=".11"/><g filter="url(#s)" stroke="#174c2b" stroke-width="12" stroke-linecap="round" stroke-linejoin="round"><circle cx="535" cy="298" r="154" fill="#fff8df" opacity=".8"/><path d="M642 409l153 153" fill="none" stroke-width="30"/><path d="M527 365C445 328 416 263 438 187c83 7 139 58 149 141Z" fill="#77a858"/><path d="M512 348c51-93 108-139 171-139-5 79-54 134-146 164Z" fill="#91be70"/><path d="M518 350c26-50 58-94 97-132" fill="none"/></g></svg>