<svg xmlns="http://www.w3.org/2000/svg" viewBox="0 0 1200 675" role="img" aria-labelledby="t d"><title id="t">Bylinky pro začátečníky</title><desc id="d">Čistá botanická ilustrace košíku s bylinkami bez textu.</desc><defs><linearGradient id="bg" x1="0" x2="1" y1="0" y2="1"><stop stop-color="#e7edcf"/><stop offset="1" stop-color="#95b86f"/></linearGradient><filter id="s"><feDropShadow dx="0" dy="18" stdDeviation="18" flood-color="#173f25" flood-opacity=".2"/></filter></defs><rect width="1200" height="675" rx="42" fill="url(#bg)"/><circle cx="1030" cy="105" r="165" fill="#fff8df" opacity=".28"/><path d="M0 552C210 478 390 510 590 570c210 62 407 34 610-74v179H0Z" fill="#173f25" opacity=".11"/><g filter="url(#s)" stroke="#174c2b" stroke-width="12" stroke-linecap="round" stroke-linejoin="round"><path d="M392 344h416l-48 222H440Z" fill="#c98445"/><path d="M472 344c10-132 246-132 256 0" fill="none" stroke-width="22"/><path d="M532 340c-10-105 28-176 80-228 57 63 81 139 62 228" fill="#86b866"/><path d="M603 302V142" fill="none"/><path d="M601 207c-85-9-124-55-136-112 73-8 130 28 151 91Z" fill="#6fa552"/><path d="M613 250c78-3 126-39 154-99-72-21-131 5-165 74Z" fill="#9bc87a"/></g><g fill="#fff8df" opacity=".54"><circle cx="155" cy="146" r="10"/><circle cx="190" cy="118" r="7"/><circle cx="1010" cy="510" r="9"/></g></svg>